<?xml version="1.0" encoding="UTF-8" standalone="no"?>
<!DOCTYPE svg PUBLIC "-//W3C//DTD SVG 1.1//EN" "http://www.w3.org/Graphics/SVG/1.1/DTD/svg11.dtd">
<svg width="100%" height="100%" viewBox="0 0 680 425" version="1.1" xmlns="http://www.w3.org/2000/svg" xmlns:xlink="http://www.w3.org/1999/xlink" xml:space="preserve" xmlns:serif="http://www.serif.com/" style="fill-rule:evenodd;clip-rule:evenodd;stroke-linejoin:round;stroke-miterlimit:2;">
    <g id="Design" transform="matrix(3.779528,0,0,3.779528,-1294.957467,-287.503907)">
        <g id="Logo" transform="matrix(1,0,0,1,300.06634,0)">
            <path id="Planet" d="M132.292,76.069C101.449,76.069 76.069,101.449 76.069,132.292C76.082,135.675 76.4,139.05 77.02,142.376C83.54,145.572 94.302,149.589 107.298,149.644C117.03,149.685 134.739,146.188 142.83,142.331C149.903,138.842 150.02,136.797 148.619,132.199C157.505,134.931 154.617,147.562 145.622,154.336C140.129,158.544 125.017,166.463 107.993,167.829C99.652,168.402 93.063,167.914 87.868,166.714C98.502,180.447 114.922,188.505 132.292,188.515C163.135,188.515 188.515,163.135 188.515,132.292C188.513,128.758 188.179,125.232 187.515,121.761C180.964,118.594 170.347,114.713 157.578,114.659C147.846,114.618 130.137,118.116 122.046,121.973C114.973,125.462 114.856,127.506 116.257,132.104C107.371,129.372 110.259,116.742 119.254,109.967C124.748,105.76 139.859,97.84 156.883,96.474C164.921,95.922 171.324,96.359 176.429,97.466C165.774,83.963 149.492,76.069 132.292,76.069Z" style="fill-rule:nonzero;"/>
            <g id="Ring-Left" serif:id="Ring Left">
                <path id="path2-3" d="M60.346,94.033C52.763,94.517 32.107,99.466 49.075,122.038C76.077,154.706 111.179,149.456 111.179,149.456C83.975,127.43 56.194,119.489 58.559,103.932C59.69,98.191 69.75,94.494 86.808,97.019C86.808,97.019 67.929,93.548 60.346,94.033Z" style="fill-rule:nonzero;"/>
                <path id="path9665-5" d="M52.95,134.021C52.95,134.021 63.742,142.676 73.896,147.505C84.051,152.333 97.308,153.816 97.308,153.816C97.308,153.816 70.794,156.025 52.95,134.021Z" style="fill-rule:nonzero;"/>
            </g>
            <g id="Ring-Right" serif:id="Ring Right" transform="matrix(-1,-0,0,-1,264.87608,264.3034)">
                <path id="path2-88-8" d="M60.346,94.033C52.763,94.517 32.107,99.466 49.075,122.038C76.077,154.706 111.179,149.456 111.179,149.456C83.975,127.43 56.194,119.489 58.559,103.932C59.69,98.191 69.75,94.494 86.808,97.019C86.808,97.019 67.929,93.548 60.346,94.033Z" style="fill-rule:nonzero;"/>
                <path id="path9665-2-6" d="M52.95,134.021C52.95,134.021 63.742,142.676 73.896,147.505C84.051,152.333 97.308,153.816 97.308,153.816C97.308,153.816 70.794,156.025 52.95,134.021Z" style="fill-rule:nonzero;"/>
            </g>
        </g>
    </g>
</svg>
