<?xml version="1.0" encoding="UTF-8" standalone="no"?>
<!DOCTYPE svg PUBLIC "-//W3C//DTD SVG 1.1//EN" "http://www.w3.org/Graphics/SVG/1.1/DTD/svg11.dtd">
<svg width="100%" height="100%" viewBox="0 0 1418 887" version="1.1" xmlns="http://www.w3.org/2000/svg" xmlns:xlink="http://www.w3.org/1999/xlink" xml:space="preserve" xmlns:serif="http://www.serif.com/" style="fill-rule:evenodd;clip-rule:evenodd;stroke-linejoin:round;stroke-miterlimit:2;">
    <g transform="matrix(1,0,0,1,-112.677607,-1580.109294)">
        <g transform="matrix(3.208984,0,0,3.208984,1803.449219,-2655.199219)">
            <g id="Layer1" transform="matrix(0.311625,0,0,0.311625,-562,827.426659)">
                <g id="Logo" transform="matrix(7.886298,0,0,7.886298,-222.945786,980.208562)">
                    <path d="M110.256,150.072C120.35,149.53 135.672,146.305 143.048,142.789C143.05,142.788 143.052,142.787 143.054,142.786C146.741,140.967 148.589,139.489 149.358,137.902C150.039,136.5 149.912,134.987 149.384,133.021C152.078,134.193 153.361,136.5 153.487,139.244C153.705,143.988 150.566,149.977 145.317,153.931C145.316,153.932 145.315,153.933 145.314,153.934C139.86,158.111 124.856,165.966 107.955,167.323C99.678,167.891 93.138,167.411 87.982,166.22C87.773,166.171 87.557,166.26 87.441,166.44C87.325,166.621 87.336,166.855 87.467,167.024C98.197,180.882 114.765,189.012 132.291,189.022C132.292,189.022 132.292,189.022 132.292,189.022C161.138,189.022 185.248,167.02 188.619,139.021C194.116,142.567 198.681,145.836 201.757,149.225C204.866,152.651 206.436,156.189 205.817,160.283C205.388,162.439 203.588,164.255 200.597,165.546C195.875,167.583 188.252,168.279 178.142,166.782C177.868,166.742 177.613,166.928 177.567,167.201C177.522,167.474 177.704,167.733 177.976,167.783C177.976,167.783 196.944,171.264 204.562,170.777C207.343,170.599 211.848,169.83 215.67,167.848C218.271,166.5 220.554,164.591 221.806,161.952C223.865,157.613 223.167,151.22 216.206,141.961C216.202,141.955 216.197,141.949 216.192,141.943C191.669,112.273 160.505,113.673 154.623,114.232C144.53,114.772 129.205,117.998 121.828,121.515C121.826,121.516 121.824,121.517 121.822,121.518C118.135,123.337 116.287,124.814 115.518,126.401C114.837,127.803 114.964,129.317 115.492,131.283C112.798,130.11 111.515,127.803 111.389,125.06C111.171,120.315 114.31,114.326 119.559,110.373C119.56,110.372 119.561,110.371 119.562,110.37C125.016,106.193 140.02,98.337 156.921,96.98C164.899,96.432 171.255,96.863 176.321,97.962C176.53,98.007 176.745,97.916 176.859,97.735C176.972,97.553 176.959,97.32 176.827,97.152C166.076,83.527 149.647,75.562 132.292,75.562C103.595,75.562 79.585,97.336 76.018,125.128C70.588,121.616 66.085,118.371 63.053,115.005C59.988,111.602 58.445,108.085 59.059,104.02C59.488,101.865 61.288,100.048 64.279,98.757C69.001,96.72 76.624,96.024 86.734,97.521C87.008,97.562 87.263,97.375 87.309,97.102C87.354,96.829 87.172,96.57 86.9,96.52C86.9,96.52 67.932,93.04 60.314,93.526C57.533,93.704 53.028,94.474 49.206,96.455C46.605,97.804 44.323,99.712 43.07,102.351C41.011,106.691 41.709,113.083 48.67,122.343C48.674,122.349 48.679,122.355 48.684,122.361C73.212,152.036 104.383,150.63 110.256,150.072L110.256,150.072ZM156.605,92.68L156.588,92.173C159.581,91.967 162.361,91.894 164.942,91.937C155.79,84.535 144.282,80.38 132.292,80.38C103.832,80.38 80.41,103.784 80.38,132.238C80.38,132.421 80.281,132.59 80.121,132.68C79.961,132.769 79.765,132.766 79.609,132.67C74.284,129.421 69.52,126.487 65.68,123.602C57.355,117.348 53.132,110.949 54.297,103.284C54.306,103.223 54.317,103.161 54.329,103.099C54.609,101.68 55.203,100.301 56.137,99.025C54.582,99.4 52.937,99.948 51.423,100.733C49.761,101.595 48.224,102.73 47.424,104.417C46.661,106.023 46.598,107.957 47.348,110.344C48.13,112.836 49.786,115.798 52.463,119.369C68.458,138.673 87.485,143.692 99.32,144.769C99.327,144.77 99.335,144.771 99.342,144.772C101.877,145.116 104.542,145.321 107.316,145.333C116.523,145.372 133.275,142.099 140.95,138.451C142.128,137.87 143.064,137.415 143.768,136.978C144.382,136.595 144.808,136.244 145.023,135.799C145.046,135.752 145.031,135.702 145.024,135.65C145.011,135.551 144.99,135.448 144.973,135.34C144.886,134.772 144.708,134.154 144.495,133.455C144.031,131.93 144.446,130.273 145.575,129.147C146.704,128.021 148.362,127.61 149.886,128.078C155.436,129.784 158.067,133.945 158.3,139.023C158.576,145.031 154.872,152.76 148.236,157.765C142.401,162.231 126.392,170.678 108.338,172.126L108.333,172.127L108.334,172.127L108.254,172.131L108.288,172.13C105.055,172.352 102.069,172.42 99.313,172.355C108.512,179.93 120.151,184.197 132.293,184.203C160.77,184.203 184.203,160.77 184.203,132.293C184.203,132.176 184.203,132.06 184.202,131.943C184.201,131.759 184.299,131.589 184.459,131.499C184.619,131.408 184.816,131.411 184.973,131.507C190.392,134.805 195.243,137.776 199.145,140.697C207.501,146.951 211.744,153.354 210.579,161.019C210.57,161.081 210.559,161.142 210.547,161.204C210.267,162.624 209.673,164.002 208.739,165.279C210.294,164.903 211.939,164.355 213.453,163.57C215.115,162.709 216.652,161.573 217.453,159.887C218.215,158.28 218.278,156.347 217.528,153.96C216.746,151.468 215.09,148.506 212.413,144.935C196.531,125.767 177.613,120.683 165.724,119.558C165.717,119.557 165.71,119.556 165.703,119.555C163.117,119.196 160.395,118.982 157.56,118.97C148.353,118.931 131.601,122.204 123.926,125.853C122.748,126.434 121.812,126.888 121.108,127.326C120.494,127.708 120.068,128.06 119.853,128.505C119.83,128.551 119.845,128.601 119.852,128.654C119.865,128.752 119.886,128.855 119.903,128.963C119.99,129.531 120.168,130.149 120.381,130.848C120.845,132.373 120.43,134.031 119.301,135.157C118.172,136.283 116.514,136.694 114.99,136.225C109.44,134.519 106.809,130.358 106.576,125.281C106.3,119.273 110.004,111.544 116.64,106.539C122.475,102.073 138.484,93.626 156.538,92.177C156.267,92.199 156.061,92.431 156.072,92.703C156.072,92.71 156.073,92.718 156.073,92.725L156.159,92.717L156.369,92.7L156.56,92.684L156.542,92.176C156.542,92.176 156.584,92.173 156.584,92.173L156.603,92.681L156.605,92.68ZM53.267,133.625C53.065,133.463 52.773,133.479 52.59,133.663C52.408,133.847 52.393,134.139 52.556,134.34C70.574,156.559 97.35,154.321 97.35,154.321C97.61,154.299 97.811,154.084 97.815,153.823C97.819,153.562 97.624,153.34 97.364,153.311C97.364,153.311 84.198,151.841 74.114,147.046C64.007,142.241 53.267,133.625 53.267,133.625ZM211.609,130.678C211.811,130.841 212.103,130.824 212.286,130.64C212.469,130.457 212.483,130.165 212.32,129.963C194.302,107.745 167.526,109.982 167.526,109.982C167.266,110.004 167.065,110.22 167.061,110.481C167.057,110.742 167.253,110.963 167.512,110.992C167.512,110.992 180.678,112.462 190.762,117.257C200.869,122.062 211.609,130.678 211.609,130.678Z" style="fill:rgb(165,255,0);fill-opacity:0.11;"/>
                </g>
                <g id="Logo1" serif:id="Logo" transform="matrix(7.886298,0,0,7.886298,-222.945786,980.208562)">
                    <path d="M110.218,149.566C104.411,150.119 73.444,151.521 49.075,122.038C32.107,99.466 52.763,94.517 60.346,94.033C67.929,93.548 86.808,97.019 86.808,97.019C69.75,94.494 59.69,98.191 58.559,103.932C57.276,112.373 64.867,118.571 76.425,125.994C79.596,98.068 103.576,76.069 132.292,76.069C149.492,76.069 165.774,83.963 176.429,97.466C171.324,96.359 164.921,95.922 156.883,96.474C139.859,97.84 124.748,105.76 119.254,109.967C110.259,116.742 107.371,129.372 116.257,132.104C114.856,127.506 114.973,125.462 122.046,121.973C129.383,118.475 144.627,115.273 154.661,114.737C160.477,114.184 191.436,112.788 215.801,142.266C232.769,164.837 212.113,169.786 204.53,170.271C196.947,170.755 178.068,167.284 178.068,167.284C195.126,169.809 205.186,166.112 206.317,160.371C207.609,151.871 199.902,145.645 188.207,138.153C185.237,166.285 161.157,188.515 132.292,188.515C114.922,188.505 98.502,180.447 87.868,166.714C93.063,167.914 99.652,168.402 107.993,167.829C125.017,166.463 140.129,158.544 145.622,154.336C154.617,147.562 157.505,134.931 148.619,132.199C150.02,136.797 149.903,138.842 142.83,142.331C135.494,145.828 120.253,149.029 110.218,149.566ZM99.274,145.274C101.829,145.622 104.517,145.828 107.314,145.84C116.583,145.879 133.448,142.58 141.171,138.908C143.567,137.726 144.978,137.054 145.48,136.02C145.591,135.791 145.518,135.545 145.474,135.263C145.384,134.674 145.201,134.032 144.98,133.308C144.57,131.962 144.937,130.499 145.933,129.506C146.929,128.512 148.393,128.15 149.737,128.563C155.052,130.197 157.57,134.183 157.793,139.046C158.063,144.921 154.419,152.467 147.929,157.361C142.135,161.796 126.231,170.182 108.297,171.621L108.254,171.624C104.461,171.885 101.011,171.932 97.874,171.801C107.328,180.04 119.536,184.703 132.293,184.711C161.048,184.71 184.71,161.048 184.711,132.293C184.711,132.175 184.71,132.057 184.709,131.94C190.113,135.228 194.95,138.19 198.841,141.103C207.012,147.218 211.217,153.448 210.078,160.943C210.069,160.997 210.06,161.052 210.049,161.106C209.701,162.875 208.836,164.576 207.409,166.08C209.393,165.713 211.655,165.074 213.686,164.021C215.447,163.108 217.063,161.891 217.911,160.104C219.531,156.69 218.261,151.889 212.812,144.621C196.812,125.306 177.75,120.187 165.772,119.053C163.166,118.691 160.421,118.475 157.562,118.463C148.293,118.424 131.428,121.723 123.705,125.396C121.309,126.578 119.898,127.249 119.396,128.283C119.285,128.512 119.358,128.759 119.402,129.04C119.492,129.629 119.675,130.271 119.896,130.996C120.306,132.342 119.939,133.804 118.943,134.797C117.947,135.791 116.484,136.154 115.139,135.74C109.824,134.106 107.306,130.12 107.083,125.257C106.813,119.382 110.457,111.837 116.947,106.943C122.741,102.507 138.645,94.122 156.579,92.682L156.622,92.679C160.171,92.435 163.418,92.379 166.389,92.48C156.974,84.42 144.897,79.873 132.292,79.873C103.554,79.873 79.903,103.506 79.873,132.237C74.564,128.998 69.814,126.073 65.985,123.197C57.844,117.081 53.659,110.856 54.798,103.361C54.807,103.306 54.816,103.252 54.827,103.197C55.175,101.428 56.04,99.728 57.467,98.223C55.483,98.59 53.221,99.23 51.19,100.283C49.429,101.196 47.813,102.413 46.965,104.199C45.346,107.613 46.615,112.414 52.064,119.683C68.178,139.136 87.351,144.189 99.274,145.274ZM52.95,134.021C52.95,134.021 63.742,142.676 73.896,147.505C84.051,152.333 97.308,153.816 97.308,153.816C97.308,153.816 70.794,156.025 52.95,134.021ZM211.926,130.283C211.926,130.283 201.135,121.627 190.98,116.799C180.825,111.971 167.568,110.488 167.568,110.488C167.568,110.488 194.082,108.279 211.926,130.283Z" style="fill:rgb(171,237,49);"/>
                </g>
                <g id="Logo2" serif:id="Logo" transform="matrix(7.886298,0,0,7.886298,-222.945786,980.208562)">
                    <path d="M110.15,148.299C110.133,148.3 110.115,148.302 110.098,148.303C104.395,148.847 74.006,150.19 50.071,121.253C43.732,112.812 42.796,107.07 44.674,103.112C45.76,100.824 47.768,99.2 50.023,98.031C53.602,96.176 57.823,95.464 60.427,95.298C62.5,95.166 65.426,95.333 68.575,95.646C66.665,96.013 64.995,96.515 63.576,97.127C59.915,98.707 57.835,101.049 57.315,103.687C57.311,103.705 57.308,103.724 57.306,103.742C56.607,108.339 58.268,112.345 61.734,116.193C64.978,119.794 69.849,123.278 75.739,127.061C76.108,127.297 76.573,127.327 76.969,127.139C77.364,126.951 77.635,126.572 77.684,126.137C80.785,98.841 104.224,77.337 132.292,77.337C147.946,77.337 162.823,84.027 173.205,95.603C168.657,94.953 163.243,94.766 156.796,95.209L156.782,95.21C139.457,96.601 124.082,104.674 118.487,108.958C112.724,113.3 109.377,119.931 109.616,125.141C109.79,128.93 111.743,132.043 115.884,133.316C116.332,133.454 116.82,133.333 117.152,133.002C117.484,132.671 117.606,132.183 117.47,131.735C116.886,129.819 116.5,128.444 117.115,127.176C117.774,125.818 119.444,124.671 122.598,123.115C129.831,119.669 144.846,116.532 154.729,116.004C154.747,116.003 154.764,116.001 154.782,116C160.492,115.456 190.874,114.119 214.805,143.051C221.144,151.491 222.08,157.233 220.202,161.191C219.116,163.479 217.108,165.103 214.853,166.272C211.274,168.128 207.053,168.839 204.449,169.005C202.377,169.138 199.45,168.97 196.301,168.658C198.211,168.29 199.881,167.788 201.3,167.176C204.961,165.596 207.041,163.255 207.561,160.616C207.565,160.598 207.568,160.58 207.571,160.562C208.274,155.934 206.585,151.904 203.071,148.032C199.783,144.409 194.849,140.902 188.891,137.085C188.521,136.848 188.054,136.819 187.658,137.01C187.261,137.2 186.992,137.582 186.946,138.02C184.043,165.518 160.506,187.246 132.292,187.247C116.478,187.238 101.469,180.404 91.085,168.618C95.754,169.336 101.358,169.556 108.08,169.094L108.094,169.093C125.419,167.703 140.794,159.63 146.389,155.346C152.152,151.003 155.499,144.373 155.26,139.162C155.086,135.373 153.133,132.26 148.992,130.987C148.544,130.849 148.056,130.97 147.724,131.301C147.392,131.633 147.27,132.12 147.406,132.569C147.99,134.484 148.376,135.86 147.761,137.127C147.102,138.486 145.432,139.633 142.278,141.189C135.046,144.634 120.033,147.771 110.15,148.299ZM185.945,134.178C190.548,136.988 194.679,139.571 198.082,142.118C205.789,147.887 209.899,153.682 208.824,160.752C208.819,160.789 208.812,160.825 208.805,160.861C208.501,162.408 207.738,163.892 206.489,165.207C206.111,165.606 206.032,166.202 206.294,166.685C206.556,167.168 207.099,167.427 207.639,167.327C209.735,166.939 212.124,166.259 214.27,165.146C216.278,164.105 218.09,162.685 219.056,160.648C219.985,158.69 220.135,156.336 219.222,153.428C218.394,150.79 216.662,147.641 213.826,143.86C213.814,143.844 213.802,143.827 213.788,143.812C197.511,124.161 178.114,118.952 165.918,117.793C163.267,117.426 160.475,117.207 157.567,117.195C148.148,117.155 131.01,120.518 123.161,124.251L123.145,124.259C121.628,125.007 120.49,125.569 119.705,126.128C119.005,126.626 118.538,127.147 118.256,127.73C118.034,128.186 118.062,128.673 118.148,129.233C118.247,129.875 118.442,130.575 118.683,131.365C118.956,132.262 118.712,133.237 118.047,133.9C117.383,134.562 116.408,134.804 115.511,134.528C110.784,133.075 108.548,129.525 108.349,125.199C108.095,119.658 111.589,112.571 117.71,107.955L117.718,107.95C123.411,103.592 139.039,95.368 156.658,93.948C157.088,93.929 163.504,93.65 166.345,93.748C166.884,93.766 167.375,93.442 167.57,92.94C167.766,92.438 167.623,91.868 167.213,91.517C157.571,83.262 145.202,78.605 132.292,78.605C103.606,78.605 79.868,101.596 78.654,130.006C74.141,127.241 70.089,124.694 66.746,122.183C59.067,116.414 54.977,110.622 56.052,103.551C56.057,103.515 56.064,103.479 56.071,103.442C56.376,101.895 57.139,100.412 58.387,99.096C58.765,98.698 58.844,98.101 58.582,97.618C58.32,97.136 57.777,96.877 57.237,96.976C55.141,97.364 52.753,98.044 50.606,99.157C48.598,100.198 46.786,101.618 45.82,103.656C44.891,105.613 44.741,107.967 45.654,110.875C46.482,113.514 48.215,116.662 51.05,120.443C51.062,120.46 51.075,120.476 51.088,120.492C67.481,140.282 86.99,145.424 99.131,146.534L99.132,146.535C101.731,146.887 104.464,147.096 107.309,147.108C116.728,147.148 133.866,143.785 141.715,140.053L141.731,140.045C143.248,139.297 144.386,138.735 145.171,138.176C145.871,137.678 146.338,137.157 146.62,136.574C146.842,136.117 146.814,135.63 146.728,135.07C146.629,134.428 146.434,133.728 146.193,132.938C145.92,132.041 146.164,131.066 146.829,130.404C147.493,129.741 148.468,129.499 149.365,129.775C154.092,131.229 156.328,134.778 156.527,139.104C156.781,144.646 153.287,151.733 147.166,156.349L147.158,156.354C141.463,160.713 125.828,168.94 108.202,170.356L108.16,170.36C104.421,170.616 101.02,170.664 97.927,170.534C97.389,170.512 96.896,170.831 96.697,171.332C96.497,171.832 96.635,172.403 97.041,172.757C106.724,181.195 119.227,185.971 132.292,185.979L132.293,185.979C161.113,185.978 184.937,162.771 185.945,134.178Z" style="fill:rgb(195,255,45);"/>
                </g>
            </g>
        </g>
    </g>
</svg>
