<?xml version="1.0" encoding="UTF-8" standalone="no"?><!DOCTYPE svg PUBLIC "-//W3C//DTD SVG 1.1//EN" "http://www.w3.org/Graphics/SVG/1.1/DTD/svg11.dtd"><svg width="100%" height="100%" viewBox="0 0 339 66" version="1.1" xmlns="http://www.w3.org/2000/svg" xmlns:xlink="http://www.w3.org/1999/xlink" xml:space="preserve" xmlns:serif="http://www.serif.com/" style="fill-rule:evenodd;clip-rule:evenodd;stroke-linejoin:round;stroke-miterlimit:2;"><g id="Logo-netuvio-v-moderním-stylu.png" serif:id="Logo netuvio v moderním stylu.png"><path d="M131.881,45.842c-0,3.83 0.494,5.665 -2.334,5.742c-6.087,0.167 -6.386,-0.403 -6.461,-1.664c-0.029,-0.484 -0.029,-18.315 -0.015,-18.479c1.559,-18.661 21.692,-17.671 28.333,-12.019c7.949,6.766 3.942,16.222 5.72,15.539c2.646,-1.016 2.473,-1.439 2.48,-1.839c0.338,-18.037 19.376,-21.475 28.399,-12.615c3.128,3.071 6.32,11.597 2.045,12.716c-1.505,0.394 -1.457,0.548 -18.755,5.119c-1.38,0.365 -2.388,0.266 -1.828,1.463c1.93,4.13 8.643,7.634 15.806,2.014c1.914,-1.502 3.693,1.064 5.174,2.633c1.339,1.419 1.527,3.224 -4.464,6.26c-5.242,2.656 -16.737,3.109 -22.725,-4.727c-2.655,-3.475 -2.028,-4.769 -2.994,-4.475c-1.394,0.424 -3.61,0.548 -3.636,1.448c-0.159,5.382 0.879,8.612 -2.601,8.621c-3.571,0.009 -6.087,0.287 -6.155,-1.667c-0.452,-12.921 1.684,-21.637 -3.13,-24.825c-3.104,-2.055 -8.094,-1.687 -10.708,1.252c-2.347,2.638 -2.199,2.989 -2.153,19.501Zm41.372,-15.497c9.059,-2.356 9.641,-2.238 9.435,-3.01c-1.135,-4.258 -12.449,-6.301 -14.285,3.624c-0.209,1.127 1.6,0.208 4.85,-0.614Z"/><path d="M323.48,16.228c17.538,3.943 17.325,22.623 10.342,30.365c-8.306,9.208 -20.24,5.461 -23.496,3.475c-12.899,-7.867 -11.796,-29.488 5.455,-33.778c2.725,-0.678 7.088,-0.138 7.699,-0.062Zm-1.188,28.037c0.714,-0.167 5.026,-1.179 6.59,-6.374c2.746,-9.12 -4.567,-15.969 -11.917,-13.473c-4.958,1.684 -6.226,6.699 -6.354,7.991c-1.023,10.383 7.006,13.321 11.68,11.855Z"/><path d="M252.293,22.084c-0.048,16.828 0.662,19.625 -3.085,24.877c-5.883,8.245 -27.657,8.654 -28.819,-8.067c-0.112,-1.61 -0.082,-1.61 -0.054,-20.173c0.003,-1.752 1.06,-1.924 6.177,-1.782c0.725,0.02 2.38,-0.308 2.683,1.779c0.276,1.896 -0.635,18.311 0.532,21.568c2.494,6.963 12.916,4.756 13.436,-1.391c0.346,-4.087 0.199,-4.087 0.281,-18.731c0.006,-1.103 -0.502,-3.21 2.263,-3.245c5.227,-0.066 6.569,-0.038 6.584,2.041c0.012,1.566 0.016,1.545 0.002,3.124Z"/><path d="M203.925,51.943c-2.956,-0.994 -7.057,-2.55 -8.262,-9.712c-0.411,-2.442 -0.193,-2.455 -0.187,-30.949c0.002,-7.425 -0.378,-8.658 1.99,-8.688c6.038,-0.076 6.168,0.078 6.656,0.807c0.536,0.8 0.025,12.613 0.276,13.178c0.188,0.423 8.07,0.139 11.071,0.206c1.88,0.042 1.541,2.981 1.531,5.057c-0.016,3.3 -2.011,2.255 -12.092,2.401c-0.769,0.011 -0.566,1.238 -0.56,4.08c0.026,11.55 -0.539,14.745 2.477,15.846c4.361,1.591 5.549,-1.997 7.939,-1.52c0.649,0.13 3.703,3.784 3.73,4.877c0.048,1.922 -5.9,6.416 -14.569,4.418Z"/><path d="M284.108,16.932c3.289,0.017 5.137,-0.369 4.063,2.744c-5.735,16.619 -11.182,30.219 -12.785,31.339c-2.027,1.416 -6.989,1.203 -8.202,-0.918c-3.17,-5.541 -12.525,-30.99 -12.324,-32.089c0.094,-0.514 0.269,-1.468 6.446,-1.086c3.136,0.194 2.723,2.533 9.059,19.821c1.216,3.319 1.193,3.338 1.262,3.341c0.432,0.016 0.266,-0.252 2.03,-5.003c3.1,-8.345 5.421,-16.947 6.664,-17.718c0.912,-0.565 2.302,-0.424 3.786,-0.431Z"/><path d="M291.991,1.878c3.138,-2.468 7.885,-0.94 8.829,2.945c1.637,6.74 -7.449,9.403 -10.129,4.248c-2.074,-3.99 0.876,-6.79 1.3,-7.193Z"/><path d="M290.407,30.074c-2.369,2.698 -4.652,4.826 -4.559,4.633c2.431,-5.042 3.802,-11.118 4.462,-14.729c0.178,-0.976 0.304,-1.771 0.386,-2.318c0.154,-0.224 0.37,-0.386 0.666,-0.501c0.826,-0.321 2.276,-0.282 4.749,-0.219c0.192,0.005 1.944,0.049 2.373,0.376c0.802,0.612 0.663,0.813 0.664,10.287c-0.026,22.718 0.152,22.884 -0.462,23.454c-0.835,0.775 -6.958,0.829 -7.798,0.005c-0.535,-0.525 -0.452,-0.65 -0.474,-18.659c-0.001,-0.826 -0.003,-1.601 -0.006,-2.328Z"/></g><g id="Logo"><path id="Planet" d="M52.117,-0c-17.913,0 -32.654,14.741 -32.654,32.654c0.007,1.965 0.192,3.925 0.552,5.857c3.787,1.856 10.038,4.189 17.585,4.221c5.652,0.024 15.938,-2.007 20.637,-4.247c4.108,-2.027 4.176,-3.214 3.363,-5.884c5.161,1.587 3.483,8.922 -1.741,12.857c-3.191,2.444 -11.968,7.043 -21.855,7.836c-4.844,0.333 -8.671,0.05 -11.688,-0.648c6.176,7.976 15.713,12.656 25.801,12.662c17.913,-0 32.654,-14.741 32.654,-32.654c-0.001,-2.053 -0.195,-4.1 -0.58,-6.116c-3.805,-1.839 -9.971,-4.093 -17.387,-4.124c-5.652,-0.024 -15.938,2.008 -20.637,4.248c-4.108,2.027 -4.176,3.214 -3.363,5.884c-5.161,-1.587 -3.483,-8.922 1.741,-12.857c3.191,-2.444 11.968,-7.043 21.855,-7.837c4.668,-0.321 8.388,-0.067 11.352,0.576c-6.188,-7.843 -15.645,-12.427 -25.634,-12.427Z" style="fill-rule:nonzero;"/><g id="Ring-Left" serif:id="Ring Left"><path id="path2-3" d="M10.331,10.433c-4.404,0.281 -16.401,3.156 -6.546,16.265c15.682,18.973 36.07,15.924 36.07,15.924c-15.8,-12.792 -31.935,-17.405 -30.561,-26.44c0.657,-3.334 6.5,-5.482 16.407,-4.015c0,0 -10.965,-2.016 -15.369,-1.735Z" style="fill-rule:nonzero;"/><path id="path9665-5" d="M6.036,33.658c0,0 6.268,5.027 12.165,7.831c5.898,2.804 13.597,3.665 13.597,3.665c0,0 -15.399,1.283 -25.763,-11.497Z" style="fill-rule:nonzero;"/></g><g id="Ring-Right" serif:id="Ring Right"><path id="path2-88-8" d="M94.073,54.712c4.404,-0.281 16.401,-3.156 6.546,-16.265c-15.682,-18.973 -36.07,-15.924 -36.07,-15.924c15.8,12.792 31.935,17.405 30.561,26.44c-0.657,3.334 -6.5,5.482 -16.407,4.015c0,0 10.965,2.016 15.369,1.735Z" style="fill-rule:nonzero;"/><path id="path9665-2-6" d="M98.368,31.487c0,0 -6.268,-5.027 -12.165,-7.831c-5.898,-2.804 -13.597,-3.665 -13.597,-3.665c0,0 15.399,-1.283 25.763,11.497Z" style="fill-rule:nonzero;"/></g></g></svg>